<svg xmlns="http://www.w3.org/2000/svg" xmlns:xlink="http://www.w3.org/1999/xlink" viewBox="0 0 92.14 60.27"><defs><style>.cls-1{isolation:isolate;}.cls-2{fill:#62b87d;filter:url(#AI_Sombra_1);}</style><filter id="AI_Sombra_1" name="AI_Sombra_1"><feGaussianBlur result="blur" stdDeviation="2" in="SourceAlpha"/><feOffset result="offsetBlurredAlpha" dx="4" dy="4" in="blur"/><feMerge><feMergeNode in="offsetBlurredAlpha"/><feMergeNode in="SourceGraphic"/></feMerge></filter></defs><g id="Capa_2" data-name="Capa 2"><g id="Capa_1-2" data-name="Capa 1"><g class="cls-1"><path class="cls-2" d="M39.17,62.47s0,.09.09,0h.17c.08-.17.08-.42.34-.51.08-.34.17-.42.34-.51a.08.08,0,0,1,.08.09c.09,0,.09.08.09.17s-.09.42-.09.59v.09a.75.75,0,0,0-.42.68,1.47,1.47,0,0,0,.51-.77h.08c.17-.08.17-.42.34-.42A.34.34,0,0,1,41,62v.26a1,1,0,0,1-.17.51,6.05,6.05,0,0,1-2.21,2.8,5.23,5.23,0,0,1-2.64.77,5.74,5.74,0,0,1-2-.43,11.61,11.61,0,0,1-4.5-2.72A13.05,13.05,0,0,1,27.19,61a30.91,30.91,0,0,1-2.3-2.38,42.46,42.46,0,0,1-3.06-4.25A37.24,37.24,0,0,1,18,47.17l-.34-.85A1.84,1.84,0,0,0,16.56,45c-.68-.42-2.21-.93-2.72-1.61a.64.64,0,0,1-.17-.34.51.51,0,0,1-.09-.35.4.4,0,0,1,.43-.42H15.2a2.51,2.51,0,0,0,.85.08,2.74,2.74,0,0,0,1.87-.5,18.36,18.36,0,0,0,2.89-2.38,10.11,10.11,0,0,1,2-2l.42-.68c2-2,3.83-4.25,5.53-6.38,1.19-1.44,2-2.8,3.06-4.16a43.07,43.07,0,0,0,3.65-7.06,24,24,0,0,0,1.7-7.73A1.14,1.14,0,0,0,37.3,11a1.14,1.14,0,0,0-.17-.51c0-.43-.17-.77-.51-.77h-.08a7.31,7.31,0,0,0-2.13.77,24,24,0,0,0-3,2.12,13,13,0,0,0-2.13,2.13L27,17.16a31,31,0,0,0-2.38,3.06c-1.11,1.53-2,3.15-3.24,4.76a43.47,43.47,0,0,0-4.08,7.14A26.26,26.26,0,0,0,14.6,37.4a4.73,4.73,0,0,1-.68,1.52,3.8,3.8,0,0,1-.34.94c-.34.85-.76,1.62-1.1,2.63-.68,1.87-2,3.83-2.64,5.79a.71.71,0,0,1-.17.59c-.51,3.15-1.27,6-1.87,8.59-.17.59-.25,1.19-.51,1.87a.73.73,0,0,1-.34.51c-.08.17-.25.17-.51.17s-.34-.26-.34-.34V58.39l-.17.26a2,2,0,0,1-.51.85.36.36,0,0,1-.08.25c-.09-.17-.17-.17-.17-.25a.67.67,0,0,1-.26-.6c0-.17.09-.25.09-.34v-.08c-.17.17-.26.25-.34.25a.34.34,0,0,1-.26-.08,3.2,3.2,0,0,1-.68-.51V58c0-.85.51-1.45.6-2a24.48,24.48,0,0,0,.42-4.25,35.47,35.47,0,0,1,.94-6.46v-.17c0-1.19,1.1-5.95,1.1-6.89v-.09a10.92,10.92,0,0,1,.34-2.21,63.85,63.85,0,0,1,1.45-6.54c.34-1.45.68-3.15,1.1-4.76,0-.09,0-.34.09-.43.25-.59.25-1.36.51-2.21a9.59,9.59,0,0,0,.59-2.63c.6-2,1-3.83,1.7-5.95.17-.77.6-1.62.85-2.47a.29.29,0,0,0,.09-.25v-.34c.17-.26.34-.43.51-.43s.34.09.59.34c.09.09.26.34.35.26s.25-.26.33-.26.09.09.17.26a.28.28,0,0,0,.17.08c.09,0,.09-.08.17-.08a.89.89,0,0,1,.43-.09c.08,0,.08,0,.08.09v.08c0,.17-.08.43-.08.6v.17a.18.18,0,0,0,.17.17c.09,0,.17-.09.26-.09.25,0,.42.09.42.43v.08a15.27,15.27,0,0,1-.42,1.87,50.18,50.18,0,0,1-1.37,5.78c-.33,1.53-.68,3-.93,4.51A14,14,0,0,1,13.92,26a34.06,34.06,0,0,0-1,4.34v.34a.32.32,0,0,0,.17.08h.17v-.08c0-.09,0-.09.09-.09.42-.93,2-2.38,2.46-3.14l2.9-4.85a27.83,27.83,0,0,1,2.12-3,22.61,22.61,0,0,1,1.45-2c.08-.17.08-.26.17-.26A36.27,36.27,0,0,1,26,12.91a18.5,18.5,0,0,1,2.21-2.29c.59-.68,1.1-1,1.7-1.62a13.32,13.32,0,0,1,3.65-2.21,3,3,0,0,1,1.11-.25,1.51,1.51,0,0,1,.59.08A8,8,0,0,1,38.41,7.9a5.35,5.35,0,0,1,2.21,4,7.82,7.82,0,0,1,.08,1.36,21.6,21.6,0,0,1-2,8.59,21.39,21.39,0,0,1-2.55,4.84A31.14,31.14,0,0,1,33.22,31c-.85,1.19-2.12,2.46-3,3.74l-3.15,3a14.17,14.17,0,0,1-2.8,2.71c-.43.34-.94.86-1.45,1.2l-1,1.1a4.64,4.64,0,0,1-1.53.94l-.43.76c-.17,0-.17.26-.17.34a.6.6,0,0,1,.34.43A11.56,11.56,0,0,1,21.15,47c1.36,2.21,2.38,4.85,3.83,7a20,20,0,0,0,3.14,4.76c1.19,1.53,2.47,2.64,3.66,4,.51.42,1.1.68,1.53,1a2.43,2.43,0,0,0,1.27.34,2.31,2.31,0,0,0,1.53-.6,4.29,4.29,0,0,0,2.3-2c.17-.26.25-.43.42-.43s.26.17.51.34c-.17,0-.17.09-.17.09s0,.08.17.08A1.53,1.53,0,0,0,39.17,62.47ZM5.25,57.2c-.08-.17-.17-.25-.17-.34A.32.32,0,0,0,5,57v.17a.86.86,0,0,0,.17.51C5.17,57.54,5.25,57.29,5.25,57.2ZM9.76,29.83A46.29,46.29,0,0,0,8.4,36,119.79,119.79,0,0,0,6.27,48.62a2,2,0,0,0-.08.59c0,.09.08.09.08.26l.09-.17a1.87,1.87,0,0,1,.25-.85c.26-1.28.34-2.72.6-4.09a11,11,0,0,1,.25-1.7c.6-2.46,1-4.84,1.36-7.22.43-2.64,1-4.93,1.53-7.48v-.43a.62.62,0,0,1,.09-.34.58.58,0,0,0-.34.43A9.32,9.32,0,0,0,9.76,29.83ZM6.53,53.55a2.67,2.67,0,0,0,.17-.77v-.34H6.61a1.14,1.14,0,0,0-.08.51ZM11.2,26.26c-.34,1.61-.68,3.06-.93,4.67-.68,2.89-1.11,5.78-1.7,8.59a44.53,44.53,0,0,0-.85,5.78c-.09,0,0,.09,0,.09s.08,0,.17-.09a9,9,0,0,0,.42-1.87c.6-2.55,1-5.1,1.45-7.73.59-3.07,1.1-6,1.78-9.1a3.07,3.07,0,0,1,.09-.94Zm-.76.93a.94.94,0,0,0,.25-.76C10.44,26.6,10.44,26.77,10.44,27.19ZM10.69,26c-.08,0-.08,0-.08.09s0,.25.08.34Zm.51-1.7c0-.08-.08-.17-.08-.25a.58.58,0,0,0-.17.34c0,.17.08.34.08.51A2.06,2.06,0,0,0,11.2,24.3Zm-.08-.25c0-.09,0-.09.17-.26C11.12,23.88,11.12,24,11.12,24.05Zm.51,1.61a5.62,5.62,0,0,0,.59-1.61L12.14,24s-.26,0-.26.09a5.81,5.81,0,0,0-.25,1.36Zm.17,16.07v-.17c-.09.09-.09.09-.09.17Zm1.1-2.29c-.08,0-.17.08-.34.17,0,.25-.17.59-.17.84v.17c.09-.34.43-.67.51-1ZM24.47,16.31l-.26.26-.17.25-.85,1c-.34.34-.68.51-.68,1l-.17.17c-.08.17-.08.17-.25.26a1.09,1.09,0,0,0-.52,1l-.25.25-.17.26a1.64,1.64,0,0,0-.68.93c.09.09-.08.09-.17.26a1,1,0,0,0-.43.76s-.08,0-.17.17a1.14,1.14,0,0,0-.59.85,1,1,0,0,0-.34.77.58.58,0,0,0-.25.25.69.69,0,0,0-.35.68.55.55,0,0,0-.42.51v.17a1.72,1.72,0,0,0-.26.34.68.68,0,0,0-.42.6,1,1,0,0,0-.42.76c-.26.26-.43.34-.43.6v.17c-.26.08-.34.34-.51.68-.17.08-.17.51-.34.85-.09,0-.17.25-.17.42-.25.09-.25.34-.34.68-.17,0-.17.26-.26.43a3.18,3.18,0,0,0-.34.76c-.08.09-.08.34-.34.34l-.34.68a.83.83,0,0,0-.08.43.61.61,0,0,0-.09.34c0,.08,0,.08.17.08-.08.43-.25.68-.25.85L12.9,36v.26c0,.17.09.25.09.34l.08-.09a28.33,28.33,0,0,0,1.62-3.65C16,30.42,17.41,28,18.86,25.66c.93-1.44,1.95-2.8,2.88-4.42a30,30,0,0,1,2.47-3.4c2.13-2.46,4.08-5.27,6.72-7.39.17-.09.25-.34.51-.51-.17,0-.17-.09-.26-.09A14.83,14.83,0,0,1,29,11.55l-2.89,3.23-.51.68a1.16,1.16,0,0,0-.08-.51c-.26.17-.6.6-.94.85A1,1,0,0,0,24.47,16.31ZM13.16,38.75a.08.08,0,0,1,.08-.08,4.18,4.18,0,0,1,.26-.85c-.26.25-.43.42-.43.68A.83.83,0,0,1,13.16,38.75Zm.59-1.61a3.86,3.86,0,0,0,.09-.43A.63.63,0,0,0,13.75,37.14Zm.17-.43c.09-.08.17-.08.17-.25C14,36.63,13.92,36.63,13.92,36.71Zm.6-1.53a2.56,2.56,0,0,0-.43,1.11.94.94,0,0,0,.43-.85Zm0,0c.26-.17.26-.25.26-.51C14.69,34.76,14.69,35,14.52,35.18Zm.17-23.8c0,.17,0,.17-.09.26.09-.09.09-.09.18-.09S14.78,11.38,14.69,11.38Zm.68,22.1a1.62,1.62,0,0,0-.59,1.19,1.16,1.16,0,0,0,.59-.93Zm0,0c.08,0,.17-.17.17-.34Zm.17-.42a.82.82,0,0,0,.42-.77A3.11,3.11,0,0,0,15.54,33.06Zm.42-.77a1.11,1.11,0,0,0,.69-1.1C16.13,31.44,16.13,31.78,16,32.29Zm1-1.87a1,1,0,0,0-.34.77c.25-.26.34-.43.34-.6Zm0,0a.8.8,0,0,0,.5-.68C17.24,29.91,17,30.08,17,30.42Zm.5-.68a1.18,1.18,0,0,0,.34-.85,1.06,1.06,0,0,0-.34.68Zm.68-1.44a.6.6,0,0,0-.34.59c.26-.17.34-.25.34-.42Zm0,0a.77.77,0,0,0,.43-.68A.68.68,0,0,0,18.17,28.3Zm.43-.68a8,8,0,0,0,1.7-2.55A5.4,5.4,0,0,0,18.6,27.62Zm1.7-2.55a4.72,4.72,0,0,0,1.44-2.21A4.62,4.62,0,0,0,20.3,25.07ZM26,17.33c.68-1.1,1.61-2,2.38-3.14l.59-.43c.85-.76,1.53-1.53,2.21-2l.43-.59-.43.17-2.63,2.21c-.77.93-1.45,2-2.13,2.72L25,17.84a24.29,24.29,0,0,0-2.38,3.4,2.52,2.52,0,0,0-.86,1.62c.26-.43.77-.85.86-1.19A32,32,0,0,1,26,17.33ZM24.21,37.82c.09,0,.09-.08.17-.25C24.3,37.74,24.3,37.82,24.21,37.82Zm.09,1.36c.08,0,.08-.08.17-.26C24.38,39.1,24.38,39.18,24.3,39.18Zm1-2.38c-.6.08-.68.43-.94.77A1.23,1.23,0,0,0,25.32,36.8Zm.42-.51c.09,0,.09-.09.17-.17C25.83,36.2,25.83,36.29,25.74,36.29Zm.85.68a2.23,2.23,0,0,0-.76.77C26.25,37.74,26.42,37.4,26.59,37Zm2.55-4a38.18,38.18,0,0,0,3-3.82,35.82,35.82,0,0,0,3.82-6.46,2.36,2.36,0,0,1,.26-.85,1.84,1.84,0,0,0-.43.51,8.21,8.21,0,0,0-.68,1.53l-.51.42a3.29,3.29,0,0,1,.17-.85,3.63,3.63,0,0,0-1.19,2.21.57.57,0,0,0-.51.6,1,1,0,0,0-.51.85v.17c-.17,0-.25.08-.34.34a.8.8,0,0,0-.59.76v.17c-.09,0-.17.09-.17.26-.09,0-.26.08-.26.17a1,1,0,0,0-.59,1c.17-.26.25-.43.51-.43-.17.43-.51.85-.6,1.11A36.39,36.39,0,0,0,26.76,35l-.68.85a.52.52,0,0,0,.51-.33C27.44,34.59,28.29,33.74,29.14,33ZM27.27,36.2c.09,0,.09-.08.17-.17C27.36,36.12,27.36,36.2,27.27,36.2Zm2-2.12c-.17.08-.43.08-.51.17-.43.59-.68,1-1.11,1.53.09-.08.34-.08.43-.17C28.46,35.18,28.8,34.5,29.23,34.08Zm1-.77c1-1.19,1.87-2.29,2.72-3.48.51-.77,1.19-1.53,1.7-2.3a5.14,5.14,0,0,0,.51-1.19,1.55,1.55,0,0,0-.6.68c-1.27,1.62-2.29,3.23-3.48,4.59a4.37,4.37,0,0,0-.77,1.11,1.86,1.86,0,0,0-.76,1.1,3.46,3.46,0,0,1-.34.26c.25,0,.25-.17.34-.17C29.91,33.74,30,33.48,30.25,33.31Zm1.36-22.18c.34,0,.51-.09.59-.43A.79.79,0,0,0,31.61,11.13Zm3.14,12.32c.26-.08.34-.42.43-.76A.74.74,0,0,0,34.75,23.45Zm.43,2.89c.25-.25.59-.42.59-.85C35.35,25.58,35.26,25.92,35.18,26.34Zm.59-.85a1,1,0,0,0,.34-.76A.92.92,0,0,0,35.77,25.49Z" transform="translate(-3.72 -6.03)"/><path class="cls-2" d="M95.44,13.17a.55.55,0,0,1-.42.17c-.09,0-.17,0-.17-.17a4.66,4.66,0,0,1-.51-1.79v-.25c0-.51-.09-.68-.43-.85a1.47,1.47,0,0,0-.76-.51,5.72,5.72,0,0,0-2-.68,23.85,23.85,0,0,0-2.64-.26,6,6,0,0,0-1.27.09.88.88,0,0,0-.51-.09c-.77,0-1.62.09-2.47.09a54.12,54.12,0,0,0-9.26,1c-2.21.25-4.34.59-6.46.76l-8.16,1.53c-1.7.34-3.49.68-5.19,1.11s-3.32.76-5,1.1c-2,.68-4.08,1.11-5.86,1.79q-4.59,1.53-9.18,3.31a56.13,56.13,0,0,0-5.44,2.89l-.34.17H28.8c-.09,0-.09-.08-.09-.17v-.17c-.51-.25-.51-.76-.59-1.1a.5.5,0,0,1-.09-.34,2.44,2.44,0,0,1,.17-.6l1.19-.85a36.64,36.64,0,0,1,6.55-3.48c1.44-.51,2.72-1.11,3.91-1.62,2-.76,3.91-1.44,5.61-1.95a95,95,0,0,1,9.27-2.38l7.14-1.28c1.1-.08,2.21-.42,3.4-.59,2.89-.43,5.86-.94,8.84-1.19a44.09,44.09,0,0,1,4.59-.51c1.1-.09,2.21-.26,3.23-.26.34,0,.59.09.93.09a14.85,14.85,0,0,0,2-.17h.85c1.19,0,2.3.08,3.57.17a8,8,0,0,1,2.38.42,5.76,5.76,0,0,1,3.83,3.57,2.35,2.35,0,0,1,.34,1.36c0,.26-.09.43-.09.68A1.28,1.28,0,0,1,95.44,13.17Zm-65.2,7h-.08c-.26,0-.43.26-.51.51C30,20.73,30.07,20.65,30.24,20.22Zm.51-.68a.09.09,0,0,0,.09.09l-.34.42c.42,0,.68-.25,1-.34,2.89-1.44,6-2.72,9-3.91l3.31-1.1a6.18,6.18,0,0,1,1.87-.77c2.81-.85,5.7-1.53,8.68-2.29a4.21,4.21,0,0,0,1-.43,3.71,3.71,0,0,0-1.1.26c-2.13.42-4.34.93-6.46,1.44l-2,.68a39.3,39.3,0,0,0-4,1.36,3.27,3.27,0,0,1-.93.09C41,15,41,15,41,14.87c-.08.08-.25.08-.42.17s-.34.25-.51.25-.34.09-.43.17-.25.09-.42.17-.26.09-.43.17-.34.09-.51.09l-.42.25c-.17,0-.26.17-.43.17-.42,0-.68.09-.76.34a.63.63,0,0,0-.43.09c-.17.08-.25.08-.34.25-.42,0-.76,0-.93.43a.42.42,0,0,0-.34.17c-.34.08-.6.08-.68.25l-.6.17a.18.18,0,0,1-.17.17.6.6,0,0,1-.42.17c-.09,0-.17.09-.26.17s-.25.09-.51.17l-.25.26v.17a.7.7,0,0,1-.68.34v-.17c-.09.08-.17.08-.17.17A.08.08,0,0,0,30.75,19.54Zm2.72-.08c-.34,0-.51.08-.59.34A.65.65,0,0,0,33.47,19.46Zm.43-.17c-.09,0-.09-.09-.17-.09s-.17.09-.26.26A.7.7,0,0,0,33.9,19.29Zm.76-.34a1,1,0,0,0-.76.34A.75.75,0,0,0,34.66,19Zm9.86-3.83c-2.46.77-5.1,1.7-7.73,2.81a1.62,1.62,0,0,0-.68.34,3.82,3.82,0,0,0-1.45.68,2,2,0,0,0,1.53-.6,7.24,7.24,0,0,1,1.28-.25c2.38-1,4.76-1.87,7-2.72,2.89-.94,6-1.7,9-2.55a13,13,0,0,0,2.46-.6H56a1.14,1.14,0,0,0,.51-.17,7.9,7.9,0,0,0-1.36.17A102.13,102.13,0,0,0,44.52,15.12Zm-2.8-.42v-.09c-.09.09-.09.09-.17.09ZM45.8,53.55c.17-.43.17-.85.34-1.45v-.51A25.19,25.19,0,0,1,47,47.77a16,16,0,0,1,.76-2.72l.6-3.15.51-2.21a2.92,2.92,0,0,0,.25-1.11l1.11-3.91a15.93,15.93,0,0,0,.51-2.29l1.61-5.7c.6-2.12,1.28-4.16,2-6.29.59-1.27,1-2.63,1.7-3.91A9,9,0,0,0,56.94,15a.6.6,0,0,1,.51-.25c.08,0,.25.08.33.08s.35.51.6.51v.26c0,.08,0,.17.09.17a.27.27,0,0,1,.17-.09c.42,0,.42,0,.59.26.09.08.17.25.26.25.42.17.59.43.59.68a1.14,1.14,0,0,1-.17.51l-.42,2a73.45,73.45,0,0,0-2.3,7.39,5.54,5.54,0,0,1-.25.94c-.68,1.7-1.11,3.65-1.7,5.44C54.81,34.67,54.47,36.2,54,38L53,41.82c-.34,1.44-.69,3.06-1.11,4.5-.17.77-.26,1.62-.51,2.47-.34,1.1-.51,2.12-.85,3.23v.59a7.7,7.7,0,0,1-.34,1.45c-.26,1.78-.51,3.31-.68,5.18,0,.77-.17,1.87-.17,2.89a14.38,14.38,0,0,0,.17,2c0,.51.25.94.25,1.45a.71.71,0,0,1-.17.59.61.61,0,0,1-.34.09c-.08,0-.17,0-.17-.09a1.27,1.27,0,0,0-.59-.25c-.09,0-.17.08-.26.08l-.17-.17a8.91,8.91,0,0,1-1.36-1.27,3.5,3.5,0,0,1-.85-1.53,14.14,14.14,0,0,1-.59-2.72v-.6c0-1.19.17-2.55.25-3.74ZM57,10.87a3.55,3.55,0,0,0-1.62.34h.43a5.47,5.47,0,0,0,1.7-.34Zm-.08,1.19a2.86,2.86,0,0,0,1.61-.42,8,8,0,0,0-2,.42Zm.59-1.19a.82.82,0,0,0,.6-.17A.72.72,0,0,0,57.53,10.87Zm.77-.17h.34a1.82,1.82,0,0,0,1.1-.34A2.81,2.81,0,0,0,58.3,10.7Zm.93.85a2.09,2.09,0,0,0,1.19-.34,2.41,2.41,0,0,0-1.53.34Zm1.62-1.44a1.44,1.44,0,0,0-1,.25,2.82,2.82,0,0,0,1.53-.25Zm-.09,1.19a.45.45,0,0,0,.34-.17h-.34c-.17,0-.25,0-.34.08C60.59,11.21,60.68,11.3,60.76,11.3ZM61.87,11c-.17,0-.26-.08-.34-.08a.65.65,0,0,0-.43.17A2.8,2.8,0,0,0,61.87,11Zm0-1.1h-.26c-.08,0-.17.08-.25.17a.29.29,0,0,1,.25-.09C61.7,10,61.7,10,61.87,9.94Zm.42,1c.09,0,.09,0,.09-.09h-.17l-.09.09Zm.85-.26s0,.17-.08.17V11h.08c.17-.09.43-.09.51-.26Zm.43-.85c-.26,0-.26.09-.34.09a2.16,2.16,0,0,1,.34.08c.08-.08.17-.17.25-.17Zm.34.85.08-.08c-.08,0-.08-.09-.17-.09s-.17.09-.17.17Zm.17-.85a.08.08,0,0,1,.08-.08V9.68c0-.08,0-.08-.08-.08-.09.17-.17.17-.26.25Zm.51.68H65a4,4,0,0,0-.42-.08Zm.68-.93V9.51H65.1V9.6Zm2.12.59a.08.08,0,0,0-.08-.08.08.08,0,0,1-.09.08c.09,0,.17,0,.17.09Z" transform="translate(-3.72 -6.03)"/><path class="cls-2" d="M57,59.67V59.5A9.32,9.32,0,0,1,58,57.2c.85-1,1.61-2.21,2.55-3.31L62.8,51a1.52,1.52,0,0,0,.34-.85,1.14,1.14,0,0,0-.08-.51l-1.79-5.36A25.39,25.39,0,0,1,60.42,40a11.47,11.47,0,0,1-.08-1.7,13.48,13.48,0,0,1,.08-1.79c.09-.84.51-1.18,1.45-1.44.17,0,.34.09.34.26a1.12,1.12,0,0,1,.08.5A5.33,5.33,0,0,0,62.12,37a14.84,14.84,0,0,0,.26,2,43,43,0,0,0,2.12,8.84c.09.17.17.25.17.34a.08.08,0,0,1,.09.08.26.26,0,0,1,.17-.08l-.26-.77a43.63,43.63,0,0,1-1.36-5.69l-.68-4.76a2.43,2.43,0,0,0-.17-.86.79.79,0,0,1-.08-.42,1.14,1.14,0,0,1,.08-.51c0-.17.09-.43.17-.43a1.21,1.21,0,0,1,.6.09c.17.08.17.26.25.34s.17.17.17.17v-.08l.09-.09a.45.45,0,0,1,.34-.17.29.29,0,0,1,.25.09l.51.76a2.5,2.5,0,0,0,.09.85c.59,2.38,1,4.68,1.44,7a12.47,12.47,0,0,0,.68,1.87c.09.17.17.17.26.17a.31.31,0,0,0,.25-.08,23.24,23.24,0,0,1,2-2.21c1.36-1.53,2.81-3.24,4.25-4.68.43-.68,1-1.19,1.45-1.78a2.52,2.52,0,0,1,.85-.43.46.46,0,0,1,.42-.26c.09,0,.17.09.26.09.59.17.93.34.93.6a1.77,1.77,0,0,1-.42.76A15,15,0,0,1,76,39.44l-7.23,8c-.76.85-1.36.93-1.36,1.61a2.79,2.79,0,0,0,.17.68,43.77,43.77,0,0,0,3.83,8.67,18.43,18.43,0,0,0,4,4.51A6.25,6.25,0,0,1,76.91,64l.51.77v.08c0,.17.34.26.34.34h-.08a1.91,1.91,0,0,0-.94.34c-.17,0-.34-.08-.51-.08-.42,0-.85.17-1.36.17-.25,0-.42-.17-.68-.26a11.62,11.62,0,0,1-3.06-2.29,14.22,14.22,0,0,1-3.91-4.76,52.79,52.79,0,0,1-2.63-4.85c-.09-.17-.17-.25-.17-.42s-.17-.17-.26-.17S64.08,53,64,53l-.34.51A38.05,38.05,0,0,0,59,59.67l-.51.68h-.09a.19.19,0,0,1-.17-.17c0-.17-.08-.34-.17-.34s-.08.08-.25.17l-.09-.09v-.68a.71.71,0,0,1-.42.43Zm.77-.51a.61.61,0,0,0,.25-.51Zm5.27-14.62A47.45,47.45,0,0,1,62,37.74a.28.28,0,0,1-.08-.17c-.09,0-.09.08-.09.17v.33c0,.52.09.94.09,1.37A41.83,41.83,0,0,0,63,45.05c.09.17.09.34.26.42A3.15,3.15,0,0,0,63.06,44.54Zm.34,1.61a.92.92,0,0,0-.17-.68A1.14,1.14,0,0,0,63.4,46.15Zm1.19-4.93c-.17-1.61-.6-3.06-.77-4.59,0-.26-.08-.43-.08-.6L63.65,36c-.08,0-.17,0-.17.08s-.08.26-.08.43A21.3,21.3,0,0,0,63.91,39a19.27,19.27,0,0,0,.59,2.89c.09.09.17.17.17.26A3.74,3.74,0,0,0,64.59,41.22Zm-1.11,5.1v.26c0,.08,0,.17.17.25A.72.72,0,0,0,63.48,46.32Zm.09.77a.45.45,0,0,0,.25.42.92.92,0,0,0-.17-.68C63.65,46.92,63.57,47,63.57,47.09Zm.25.51c0,.25,0,.42.26.51A.51.51,0,0,0,63.82,47.6Zm.26.68c.08.08.08.08.17.08a.08.08,0,0,0-.09-.08c0-.09-.08-.09-.08-.17Zm.59-5.61.09.08a.08.08,0,0,1,.08-.08c0-.17,0-.43-.17-.51Zm.26.85.08-.09h-.08Zm.25.51-.08.08h.08Zm.94,7.22c-.09,0-.09,0-.17-.08a.26.26,0,0,1,.08.17C66.12,51.34,66.12,51.34,66.12,51.25Z" transform="translate(-3.72 -6.03)"/></g></g></g></svg>